<svg xmlns="http://www.w3.org/2000/svg" xmlns:xlink="http://www.w3.org/1999/xlink" width="1080" zoomAndPan="magnify" viewBox="0 0 810 809.999993" height="1080" preserveAspectRatio="xMidYMid meet" version="1.0"><defs><clipPath id="007c5bf514"><rect x="0" width="810" y="0" height="810"/></clipPath></defs><g transform="matrix(1, 0, 0, 1, 0, 0.000000000000039746)"><g clip-path="url(#007c5bf514)"><path fill="#0f0f0f" d="M 189.148438 667.207031 C 166.925781 684.070312 135 668.214844 135 640.320312 L 135 169.683594 C 135 141.785156 166.925781 125.933594 189.148438 142.792969 L 499.339844 378.113281 C 517.140625 391.617188 517.140625 418.382812 499.339844 431.886719 Z M 67.5 640.320312 C 67.5 724.007812 163.269531 771.566406 229.945312 720.984375 L 540.136719 485.664062 C 593.542969 445.148438 593.542969 364.851562 540.136719 324.335938 L 229.945312 89.019531 C 163.269531 38.4375 67.5 85.992188 67.5 169.683594 Z M 67.5 640.320312 " fill-opacity="1" fill-rule="evenodd"/><path fill="#0f0f0f" d="M 742.5 101.25 C 742.5 82.609375 727.390625 67.5 708.75 67.5 C 690.109375 67.5 675 82.609375 675 101.25 L 675 708.75 C 675 727.390625 690.109375 742.5 708.75 742.5 C 727.390625 742.5 742.5 727.390625 742.5 708.75 Z M 742.5 101.25 " fill-opacity="1" fill-rule="nonzero"/></g></g></svg>